<svg width="181" height="26" viewBox="0 0 181 26" fill="none" xmlns="http://www.w3.org/2000/svg">
<g clip-path="url(#clip0)">
<path d="M83.3645 0.752686H74.5007L66.4789 9.31183V0.752686H58.3906V24.3441H66.4789V18.5161L68.3181 16.5269L74.3899 24.3441H78.7664L80.65 20.172L73.6697 11.129L83.3645 0.752686Z" fill="black"/>
<path d="M100.317 20.2366H91.0761L89.4474 24.3441H81.1154L91.7409 0.752686H99.7959L110.421 24.3441H101.934L100.317 20.2366ZM98.1007 14.5054L95.6964 8.60215L93.3364 14.5376L98.1007 14.5054Z" fill="black"/>
<path d="M133.456 24.3441L133.39 13.5914L128.105 22.1935H124.493L119.219 13.9785V24.3548H111.751V0.752686H118.488L126.41 13.3226L134.066 0.752686H140.813L140.88 24.3441H133.456Z" fill="black"/>
<path d="M144.88 0.752686H153.079V24.3441H144.88V0.752686Z" fill="black"/>
<path d="M181 0.752686V24.3441H174.263L165.023 13.5914V24.3441H157.034V0.752686H163.782L173.011 11.5054V0.752686H181Z" fill="black"/>
<path d="M4.43209 24.0537C3.07406 23.4454 1.92152 22.4761 1.10814 21.258C0.350526 20.0359 -0.0337192 18.63 0.000156384 17.2042C-0.0483408 16.0728 0.191153 14.9472 0.697463 13.927C1.20377 12.9067 1.9613 12.0233 2.90307 11.3547C5.04283 9.87624 7.62371 9.12068 10.249 9.20419C11.6228 9.2015 12.9919 9.36036 14.3264 9.67731C15.335 9.89921 16.3052 10.2614 17.2071 10.7526V9.34397C17.2397 8.54399 17.0852 7.74722 16.7552 7.01348C16.4251 6.27974 15.9281 5.62808 15.3014 5.10741C13.9516 4.01896 12.2354 3.45228 10.4817 3.51602C9.17588 3.49922 7.8859 3.79465 6.72561 4.37623C5.61182 4.91381 4.66965 5.73524 3.99997 6.75258L0.953021 4.53752C1.92445 3.09747 3.28515 1.94433 4.88636 1.20419C6.61389 0.386175 8.51534 -0.0263502 10.4374 -0.000112046C13.2587 -0.151861 16.0331 0.748216 18.1932 2.51602C19.1525 3.39317 19.9047 4.46149 20.3982 5.64757C20.8916 6.83364 21.1146 8.10934 21.0518 9.38698V24.3332H17.2071V20.9569H17.0188C16.2392 22.1697 15.1569 23.1719 13.8721 23.8709C12.4401 24.6795 10.8087 25.0957 9.15209 25.0752C7.5183 25.0956 5.90214 24.7458 4.43209 24.0537ZM13.3957 20.5805C14.556 19.9186 15.5214 18.9781 16.1989 17.8494C16.8962 16.7191 17.2603 15.4247 17.2514 14.1074C16.3714 13.5669 15.411 13.1607 14.4039 12.9031C13.2568 12.5932 12.0713 12.4376 10.8805 12.4407C9.09471 12.3169 7.31914 12.7913 5.8503 13.7848C5.3096 14.1965 4.87497 14.7247 4.58076 15.3274C4.28655 15.9302 4.14082 16.5911 4.15509 17.258C4.13115 17.8656 4.25629 18.47 4.52019 19.0215C4.7841 19.573 5.17922 20.0557 5.67303 20.43C6.77631 21.2485 8.14153 21.6635 9.52881 21.602C10.8751 21.6063 12.197 21.2531 13.3513 20.5805H13.3957Z" fill="black"/>
<path d="M25.7938 0.870919H29.6496V4.77415H29.838C30.4017 3.40778 31.4299 2.26955 32.7519 1.54834C34.6492 0.52422 36.8514 0.163599 38.9899 0.526833V4.54834C38.2609 4.40512 37.5174 4.34378 36.7739 4.36554C35.8395 4.33007 34.908 4.48925 34.0422 4.83238C33.1765 5.1755 32.3965 5.69462 31.7548 6.35479C30.4286 7.76183 29.7313 9.62173 29.8158 11.5268V24.3333H25.7938V0.870919Z" fill="black"/>
<path d="M48.9507 24.2366C48.1638 23.9677 47.4431 23.5429 46.8344 22.9893C46.2147 22.4224 45.7339 21.728 45.4273 20.957C45.0834 20.0526 44.9216 19.0926 44.9509 18.129V4.30108H42.1809V0.741943H54.8895V4.30108H48.9728V17.2043C48.8926 18.2171 49.1616 19.227 49.7373 20.0753C50.0717 20.4206 50.4803 20.6902 50.9342 20.8648C51.388 21.0395 51.8759 21.1151 52.3633 21.086C53.3126 21.0787 54.2396 20.8062 55.0335 20.3011V24.1398C54.5719 24.3531 54.0841 24.5085 53.582 24.6022C52.9602 24.7065 52.3295 24.7533 51.6985 24.7419C50.7583 24.7386 49.8269 24.5673 48.9507 24.2366Z" fill="black"/>
<path d="M37.9151 16.3547C37.9151 16.3547 34.015 18.9461 34.015 22.4945C34.1385 23.4078 34.6 24.2464 35.3135 24.8539C36.027 25.4614 36.9438 25.7964 37.893 25.7964C38.8421 25.7964 39.7589 25.4614 40.4724 24.8539C41.1859 24.2464 41.6474 23.4078 41.7709 22.4945C41.8152 18.9461 37.9151 16.3547 37.9151 16.3547ZM37.9151 24.3332C37.7077 24.3471 37.4995 24.3182 37.3044 24.2485C37.1092 24.1787 36.9315 24.0697 36.7829 23.9285C36.6343 23.7873 36.5182 23.6172 36.4421 23.4294C36.3661 23.2415 36.3319 23.0402 36.3418 22.8386C36.386 22.3442 36.5519 21.8673 36.8258 21.4481C37.0996 21.0289 37.4732 20.6797 37.9151 20.43C38.3521 20.6789 38.7217 21.0253 38.9934 21.4404C39.2651 21.8555 39.431 22.3274 39.4774 22.8171C39.4903 23.0195 39.4588 23.2222 39.3849 23.4119C39.311 23.6015 39.1963 23.7737 39.0486 23.9171C38.9009 24.0605 38.7234 24.1717 38.528 24.2435C38.3325 24.3152 38.1236 24.3458 37.9151 24.3332Z" fill="black"/>
</g>
<defs>
<clipPath id="clip0">
<rect width="181" height="26" fill="white"/>
</clipPath>
</defs>
</svg>
