<svg xmlns="http://www.w3.org/2000/svg" width="181" height="28" viewBox="0 0 181 28"><g><g><g><text dominant-baseline="text-before-edge" style="text-transform:uppercase" fill="#fff" font-family="'SegoeWPN','SegoeWPN'" font-size="27.3" font-style="none" font-weight="400" transform="translate(33 3)"><tspan style="font-kerning:normal">Leo images</tspan></text></g></g><g><path fill="#fff" d="M4.226.406h15.216a4.226 4.226 0 0 1 4.226 4.227v18.596a4.226 4.226 0 0 1-4.226 4.227H4.226A4.227 4.227 0 0 1 0 23.229V4.633A4.227 4.227 0 0 1 4.226.406zM1.69 15.622v6.762a3.381 3.381 0 0 0 3.382 3.381h13.524a3.381 3.381 0 0 0 3.382-3.38v-6.763c0-.292-.037-.575-.107-.846h.107v-3.38h-1.691v1.297a3.31 3.31 0 0 0-.041-.023c.025.276.037.556.037.839 0 4.9-3.783 8.871-8.449 8.871s-8.45-3.972-8.45-8.871c0-.283.013-.563.038-.84a3.397 3.397 0 0 0-.041.024v-1.298h-1.69v3.381h.106c-.07.27-.107.554-.107.846zm4.234-1.695a5.914 5.914 0 0 0 5.91 5.918c3.264 0 5.91-2.65 5.91-5.918a5.914 5.914 0 0 0-5.91-5.917 5.914 5.914 0 0 0-5.91 5.917zm1.683-7.604h1.691V2.097h-1.69zm3.382 0h1.69V2.097h-1.69zm3.38 0h1.691V2.097h-1.69zm-.844 4.227a2.536 2.536 0 0 1 1.609 4.496 2.959 2.959 0 0 0-3.57-3.57 2.53 2.53 0 0 1 1.96-.926z"/></g><g><path fill="#f6fcfb" d="M67.875 8.75c2.14 0 3.875 2.183 3.875 4.875S70.015 18.5 67.875 18.5c-2.14 0-3.875-2.183-3.875-4.875s1.735-4.875 3.875-4.875z"/></g></g></svg>